<svg viewBox="0 0 32 32" xmlns="http://www.w3.org/2000/svg"><g fill="#747987"><path d="m5.16 12.39a1 1 0 0 0 1-1v-5.23h5.23a1 1 0 0 0 0-2h-6.23a1 1 0 0 0 -1 1v6.23a1 1 0 0 0 1 1z"/><path d="m20.61 6.16h5.23v5.23a1 1 0 1 0 2 0v-6.23a1 1 0 0 0 -1-1h-6.23a1 1 0 0 0 0 2z"/><path d="m5.16 27.84h6.23a1 1 0 1 0 0-2h-5.23v-5.23a1 1 0 0 0 -2 0v6.23a1 1 0 0 0 1 1z"/><path d="m20.61 27.84h6.23a1 1 0 0 0 1-1v-6.23a1 1 0 0 0 -2 0v5.23h-5.23a1 1 0 0 0 0 2z"/><path d="m11 22h10a1 1 0 0 0 1-1v-4h1.76a1 1 0 1 0 0-2h-1.76v-4a1 1 0 0 0 -1-1h-10a1 1 0 0 0 -1 1v4h-1.73a1 1 0 0 0 0 2h1.73v4a1 1 0 0 0 1 1zm9-2h-8v-3h8zm-8-8h8v3h-8z"/></g></svg>