<svg viewBox="0 0 32 32" xmlns="http://www.w3.org/2000/svg"><g fill="#747987"><path d="m26.93 7.69h-5.39a1 1 0 0 0 -.59.19l-1.34 1-1.4-1a1 1 0 0 0 -.58-.18h-12.56a1.74 1.74 0 0 0 -1.74 1.72v3.86a1 1 0 0 0 1 1h.44a1.72 1.72 0 1 1 0 3.44h-.44a1 1 0 0 0 -1 1v3.86a1.74 1.74 0 0 0 1.74 1.73h12.58a1 1 0 0 0 .66-.25l1.31-1.15 1.38 1.16a1 1 0 0 0 .65.24h5.3a1.74 1.74 0 0 0 1.74-1.73v-3.86a1 1 0 0 0 -1-1h-.44a1.72 1.72 0 1 1 0-3.44h.44a1 1 0 0 0 1-1v-3.86a1.74 1.74 0 0 0 -1.76-1.73zm-.26 4.63a3.72 3.72 0 0 0 0 7.36v2.63h-4.67l-1.39-1.19v-.63a1 1 0 1 0 -2 0v.64l-1.34 1.18h-11.94v-2.63a3.72 3.72 0 0 0 0-7.36v-2.63h12l1.3.92v.67a1 1 0 1 0 2 0v-.68l1.26-.91h4.8z"/><path d="m19.61 13.73a1 1 0 0 0 -1 1v2.27a1 1 0 0 0 2 0v-2.3a1 1 0 0 0 -1-.97z"/></g></svg>