<svg viewBox="0 0 32 32" xmlns="http://www.w3.org/2000/svg"><g fill="#747987"><path d="m5 9.52v13a4.58 4.58 0 0 0 4.57 4.57h13a4.58 4.58 0 0 0 4.57-4.57v-13a4.58 4.58 0 0 0 -4.66-4.52h-13a4.58 4.58 0 0 0 -4.48 4.52zm2 0a2.57 2.57 0 0 1 2.52-2.52h13a2.57 2.57 0 0 1 2.57 2.57v13a2.57 2.57 0 0 1 -2.57 2.57h-13a2.57 2.57 0 0 1 -2.52-2.66z"/><path d="m10.7 21.56a1 1 0 0 0 1.41 0l9.74-9.73a1 1 0 0 0 -1.42-1.41l-9.73 9.73a1 1 0 0 0 0 1.41z"/><path d="m12.05 14.69a2.64 2.64 0 1 0 -2.63-2.64 2.64 2.64 0 0 0 2.63 2.64zm0-3.27a.64.64 0 1 1 -.63.63.64.64 0 0 1 .63-.63z"/><path d="m20 17.31a2.64 2.64 0 1 0 2.58 2.69 2.64 2.64 0 0 0 -2.58-2.69zm0 3.27a.64.64 0 1 1 .63-.63.64.64 0 0 1 -.63.63z"/></g></svg>