<svg viewBox="0 0 32 32" xmlns="http://www.w3.org/2000/svg"><g fill="#747987"><path d="m16 27.08a11.08 11.08 0 1 0 -11.08-11.08 11.09 11.09 0 0 0 11.08 11.08zm0-20.16a9.08 9.08 0 1 1 -9.08 9.08 9.1 9.1 0 0 1 9.08-9.08z"/><path d="m16.35 12.4a1.28 1.28 0 1 0 -1.28-1.28 1.28 1.28 0 0 0 1.28 1.28z"/><path d="m14.25 22.08a1.5 1.5 0 0 0 .88.29 1.42 1.42 0 0 0 .63-.15l.84-.39a1 1 0 0 0 -.68-1.83l1.39-5.06a.58.58 0 0 0 0-.14 1.48 1.48 0 0 0 -.61-1.4 1.5 1.5 0 0 0 -1.53-.12l-.94.47a1 1 0 0 0 -.44 1.34 1 1 0 0 0 1.24.49l-1.38 5a.59.59 0 0 0 0 .14 1.48 1.48 0 0 0 .6 1.36z"/></g></svg>