<svg viewBox="0 0 32 32" xmlns="http://www.w3.org/2000/svg"><path d="m28.21 7.45a4.44 4.44 0 0 1 -2.9.74.06.06 0 0 0 0 0c.94-.12 1.8-1.34 2.05-2a1.39 1.39 0 0 0 .1-.78 10.08 10.08 0 0 1 -3.06 1.28 4.85 4.85 0 0 0 -3.66-1.69 5 5 0 0 0 -4.9 5 5.22 5.22 0 0 0 .24 1.49 12.33 12.33 0 0 1 -8.87-3.49 7.18 7.18 0 0 1 -1.61-2 5.53 5.53 0 0 0 -.79 3 5.38 5.38 0 0 0 2.93 4.43 4.65 4.65 0 0 1 -2.91-.71 5.92 5.92 0 0 0 .81 2.74 5.72 5.72 0 0 0 4 2.71 4 4 0 0 1 -3 0 5.11 5.11 0 0 0 4.79 3.83 12.58 12.58 0 0 1 -6.8 2.62 12.18 12.18 0 0 0 6.76 2.33 13 13 0 0 0 10.45-4.61 17 17 0 0 0 3.93-12c2.42-1.7 2.44-2.89 2.44-2.89z" fill="#00aeef"/></svg>