<svg viewBox="0 0 32 32" xmlns="http://www.w3.org/2000/svg"><path d="m11.47 11.44a6.46 6.46 0 0 1 8.85-.27l2.89-3a10.68 10.68 0 0 0 -14.81.3 10 10 0 0 0 -1.8 2.62l3.4 2.74a6.28 6.28 0 0 1 1.47-2.39z" fill="#ec1d25"/><path d="m10 13.83-3.4-2.74a10.62 10.62 0 0 0 .1 9.63l3.4-2.63a6.49 6.49 0 0 1 -.1-4.26z" fill="#fabb05"/><path d="m11.7 20.6a6.56 6.56 0 0 1 -1.6-2.51l-3.4 2.63a10.88 10.88 0 0 0 2.09 2.87 10.64 10.64 0 0 0 14.5.47l-3.44-2.66a6.51 6.51 0 0 1 -8.15-.8z" fill="#34a853"/><path d="m26.25 14.06h-10.08v4.11h5.88a4.38 4.38 0 0 1 -1.19 2.39 6.17 6.17 0 0 1 -1 .84l3.44 2.66c.21-.18.43-.33.63-.53a9.32 9.32 0 0 0 2.43-5.17 11.51 11.51 0 0 0 -.11-4.3z" fill="#4285f4"/></svg>