<svg viewBox="0 0 20.73 25.42" xmlns="http://www.w3.org/2000/svg"><g fill="#747987"><path d="m11.31 25.42a2.77 2.77 0 0 1 -1.51-.42l-8.52-5.54a2.78 2.78 0 0 1 -.83-3.86l6.66-10.29a2.52 2.52 0 0 1 1.7-1.13l6.81-1.18a2.92 2.92 0 0 1 3.38 2.13l1.69 6.71a2.58 2.58 0 0 1 -.33 2l-6.66 10.3a2.82 2.82 0 0 1 -1.76 1.21 3 3 0 0 1 -.63.07zm4.82-20.49h-.13l-6.84 1.22a.52.52 0 0 0 -.37.24l-6.66 10.3a.73.73 0 0 0 -.11.59.77.77 0 0 0 .34.5l8.52 5.52a.84.84 0 0 0 .6.11.81.81 0 0 0 .5-.35l6.66-10.29a.57.57 0 0 0 .07-.44l-1.71-6.71a.92.92 0 0 0 -.87-.69z"/><path d="m15 11.35a3.83 3.83 0 0 1 -3.74-3 3.76 3.76 0 0 1 .53-2.88 3.83 3.83 0 1 1 4 5.83 4.45 4.45 0 0 1 -.79.05zm0-5.66a1.83 1.83 0 0 0 -1.54.83 1.78 1.78 0 0 0 -.25 1.38 1.82 1.82 0 0 0 .79 1.16 1.83 1.83 0 1 0 2-3.06 1.81 1.81 0 0 0 -.95-.31z"/><path d="m8.1 18.75-.34.52-.38-.27.34-.52a2.25 2.25 0 0 1 -.71-3l1.47 1a.67.67 0 0 0 .08.78l.62-1a1.49 1.49 0 0 0 -.12-.14 2.24 2.24 0 0 1 -.47-2.88 2.13 2.13 0 0 1 2.9-.55l.35-.53.38.25-.34.53a2.16 2.16 0 0 1 .67 2.91l-1.46-1a.56.56 0 0 0 -.05-.66l-.6.92.14.16c.69.77 1.3 1.74.56 2.9a2.23 2.23 0 0 1 -3.04.58zm1.51-1.42c.13-.21.06-.46-.12-.73l-.56.87a.56.56 0 0 0 .68-.14zm.54-2.6.51-.78a.49.49 0 0 0 -.57.15.57.57 0 0 0 .06.63z"/><path d="m15.11 8.42a1.09 1.09 0 0 1 -.54-.16 1 1 0 0 1 -.3-1.39l4.16-6.41a1 1 0 1 1 1.67 1.08l-4.1 6.46a1 1 0 0 1 -.89.42z"/></g></svg>