<svg viewBox="0 0 32 32" xmlns="http://www.w3.org/2000/svg"><path d="m22.44 10.47a3.76 3.76 0 0 0 -2.8 1.26l-5.75-2.23a4.75 4.75 0 0 0 0-.53 3.84 3.84 0 1 0 -.85 2.36l5.63 2.19a3.67 3.67 0 0 0 -.08.75 3.74 3.74 0 0 0 .91 2.43l-4.66 3.8a3.75 3.75 0 0 0 -2.41-.9 3.85 3.85 0 1 0 3.57 2.54l5.25-4.28a3.7 3.7 0 0 0 1.15.2 3.8 3.8 0 0 0 0-7.59zm-12.29.29a1.8 1.8 0 1 1 1.79-1.76 1.8 1.8 0 0 1 -1.79 1.76zm2.33 14.43a1.8 1.8 0 1 1 1.79-1.79 1.8 1.8 0 0 1 -1.79 1.79zm10-9.13a1.8 1.8 0 1 1 1.79-1.79 1.8 1.8 0 0 1 -1.83 1.79z" fill="#747987"/></svg>