<svg viewBox="0 0 32 32" xmlns="http://www.w3.org/2000/svg"><g fill="#747987"><path d="m5 5 1.87.55 1.88 13.53a.86.86 0 0 0 .07.21s0 .09 0 .13a1.3 1.3 0 0 0 .18.18s0 .07.07.09a1 1 0 0 0 .22.13l.08.05a1.1 1.1 0 0 0 .36.07h.14l10.63-1.43 2.33 1.49a1 1 0 0 1 .4 1.09 1 1 0 0 1 -.91.66h-12.58a1 1 0 1 0 0 2h12.58a2.94 2.94 0 0 0 1.59-5.43l-.34-.23 1.31-.17a1 1 0 0 0 .84-.74l2-7.51a1 1 0 0 0 -1-1.26h-17.45l-.54-3.8a1 1 0 0 0 -.73-.81l-2.47-.73a1 1 0 0 0 -.53 1.93zm20.48 5.43-1.48 5.57-13.41 1.82-1-7.4z"/><path d="m14.62 26.57a2.4 2.4 0 1 0 -2.39 2.43 2.39 2.39 0 0 0 2.39-2.43zm-2.79 0a.4.4 0 0 1 .79 0 .4.4 0 1 1 -.79 0z"/><path d="m23.05 26.57a2.4 2.4 0 1 0 -2.39 2.43 2.39 2.39 0 0 0 2.39-2.43zm-2.79 0a.39.39 0 0 1 .4-.39.38.38 0 0 1 .39.39.39.39 0 0 1 -.39.4.4.4 0 0 1 -.4-.4z"/></g></svg>