<svg viewBox="0 0 32 32" xmlns="http://www.w3.org/2000/svg"><path d="m22.59 15.82v9.28h3.91a1.63 1.63 0 0 0 1.63-1.64v-11.78z" fill="#34a853"/><path d="m22.58 8.63v7.18l-6.57 4.91-.01-.02-.01.02-6.57-4.91v-7.18l6.58 4.9z" fill="#ea4335"/><path d="m28.13 9.34v2.33l-5.55 4.14v-7.18l1.66-1.25a2.46 2.46 0 0 1 1.46-.48 2.43 2.43 0 0 1 2.43 2.44z" fill="#fbbc04"/><path d="m9.41 15.82v9.28h-3.91a1.63 1.63 0 0 1 -1.63-1.64v-11.78z" fill="#4285f4"/><path d="m3.87 9.34v2.33l5.55 4.14v-7.18l-1.66-1.25a2.46 2.46 0 0 0 -1.46-.48 2.43 2.43 0 0 0 -2.43 2.44z" fill="#c5221f"/></svg>