<svg viewBox="0 0 496.96 405.88" xmlns="http://www.w3.org/2000/svg"><path d="m0 375.05h496.96v3h-496.96z" fill="#c7c7c7"/><path d="m465.38 313.16h-409.79a14.38 14.38 0 0 1 -14.37-14.37v-249.41a14.38 14.38 0 0 1 14.37-14.38h409.79a14.38 14.38 0 0 1 14.37 14.37v249.42a14.39 14.39 0 0 1 -14.37 14.37zm-409.79-266.16a2.37 2.37 0 0 0 -2.37 2.37v249.42a2.37 2.37 0 0 0 2.37 2.37h409.79a2.37 2.37 0 0 0 2.37-2.37v-249.41a2.37 2.37 0 0 0 -2.37-2.38z" fill="#ccc"/><path d="m278.78 135.43h-8.78v-17.05a15.32 15.32 0 1 0 -30.63 0v17.05h-8.75v-17.05a24.07 24.07 0 1 1 48.13 0z" fill="#485e61"/><rect fill="#5dba3e" height="71.62" rx="4.46" width="71.62" x="219.57" y="130.73"/><path d="m262.14 160.25a6.76 6.76 0 1 0 -9.68 6.07v8.17a2.92 2.92 0 0 0 5.84 0v-8.17a6.75 6.75 0 0 0 3.84-6.07z" fill="#fff"/><path d="m307.15 242h-103.54a13.93 13.93 0 1 1 0-27.85h103.54a13.93 13.93 0 1 1 0 27.85zm-103.54-25.34a11.42 11.42 0 0 0 0 22.83h103.54a11.42 11.42 0 0 0 0-22.83z" fill="#ccc"/><path d="m96.46 377.91s2.7 6.18-10.36 11c-7.87 2.89-10.19 15.11 0 16.86s30.9-13.77 30.9-13.77v-16.12z" fill="#121e20"/><path d="m173.4 377.91s-2.7 6.18 10.36 11c7.87 2.89 10.19 15.11 0 16.86s-30.91-13.77-30.91-13.77v-16.12z" fill="#121e20"/><path d="m95.49 249.37s-.82 98-6.56 129.54c0 0 15.58 8.61 31.36 3.69l9.88-114.78 16.15 114s25.83 2.87 32.38-3.69c0 0-9.42-51.24-10.65-75.83s-5.74-67.3-5.74-67.3z" fill="#22393d"/><path d="m129.31 253.75v7.79h3.07v-9.94z" fill="#121e20"/><path d="m38.46 318.25h137.22v1h-137.22z" fill="#121e20" transform="matrix(.0859386 -.99630044 .99630044 .0859386 -219.7 398.03)"/><path d="m155.09 248.65h1v137.22h-1z" fill="#121e20" transform="matrix(.99637505 -.08506913 .08506913 .99637505 -26.45 14.4)"/><path d="m103.08 137.06-8.45 4.77a12.84 12.84 0 0 0 -6.45 9.68c-1.78 15-5.75 49.22-3.55 51.75 2.66 3.08 10.86 12.3 10.86 12.3l-2 33.2s36.4 12.63 74.53-2.29l-3.02-31.94s11.64-9.62 11.87-17.61c.37-13.29-.68-34.07-1.34-45.21a12.87 12.87 0 0 0 -7.4-10.89l-8-3.76z" fill="#4358eb"/><path d="m116.4 129.82-13.32 7.24 7.92 30.33h6.96l-4.03 9.02 15.38 23.16 17.83-26.03-3.96-5.53 6.7-2.76 10.17-28.19-15.37-8.34z" fill="#203ed3"/><path d="m126.4 142.65-5 4.65 2.46 11.38 12.81-.1 3.07-10.73-4.22-5.34s-6.03-3.43-9.12.14z" fill="#bcbdbf"/><path d="m119.3 126.54-2.9 3.28 5.02 17.48 9.79-9.02 8.55 9.57 4.92-19.13-2.16-1.64z" fill="#96999a"/><path d="m127.26 146.28-3.38 12.4 5.94 27.77 6.87-27.87-2.77-12.3s-3.18-5.02-6.66 0z" fill="#231f20"/><path d="m95.49 215.56c2.26 2 4.42 4.11 6.56 6.24s4.22 4.3 6.3 6.48 4.1 4.41 6.1 6.67 4 4.54 5.84 6.91c-2.25-2-4.42-4.11-6.55-6.24s-4.23-4.3-6.3-6.48-4.11-4.41-6.1-6.67-3.97-4.54-5.85-6.91z" fill="#203ed3"/><path d="m128.31 194.73h2v57.8h-2z" fill="#203ed3"/><path d="m125.89 227.86s-5.8 3.62-7.51 4.88-5.19 2.15-4 3.59 5.65 0 5.65 0l-5 4.3s-.75 2.67 2 2.39c0 0-.48 3.56 2.53 2.87 0 0-.48 3.62 2.32 2.94 0 0 .21 3.19 3 2.12 4.8-1.83 10.6-7.62 12.43-9.09z" fill="#ffcdc2"/><path d="m129.86 223.62-4 4.24s6.43 11 11.41 14l3.42-2.73s-8.92-8.61-10.83-15.51z" fill="#203ed3"/><path d="m136.83 241.63s-2.11.06-1.46 1.7c0 0-2.84-.06-2.36 2.29 0 0-2.8-.54-2.53 2 0 0-2.94-.79-2.42 2.22 0 0 2.63 2.66 3.79-.79a2.35 2.35 0 0 0 2.66-1.88 3 3 0 0 0 2.32-2 1.48 1.48 0 0 0 1.37-1.81c-.34-1.6-1.37-1.73-1.37-1.73z" fill="#e0a4ab"/><path d="m103.08 155.3v8.67s-.07 5.78-.13 8.67q-.16 8.66-.45 17.32l-.09-.34c1.93 3.08 4 6.13 6.07 9.12s4.26 5.94 6.52 8.81 4.59 5.69 7.05 8.4a88.84 88.84 0 0 0 7.85 7.67c1.7 8-20.28-21.18-22.41-24.18s-4.2-6-6.13-9.18l-.09-.16v-.18q.33-8.67.78-17.32c.15-2.88.31-5.77.49-8.65s.31-5.77.54-8.65z" fill="#203ed3"/><path d="m157.59 159.6c.2 2.56.35 5.12.51 7.68s.3 5.12.44 7.68l.36 7.68.32 7.69v.22l-.15.18c-4.71 5.73-28 34.44-29.13 35.71-1.33 1.51.5-3.72-.85-2.23 2.25-3 12.55-14.21 14.88-17.09q7-8.64 14.17-17.16l-.13.41-.2-7.69-.15-7.69c0-2.56-.07-5.13-.07-7.69s-.02-5.13 0-7.7z" fill="#203ed3"/><path d="m140.72 239.13c1.95-2.14 4-4.2 6-6.25s4.08-4.07 6.12-6.09l6.16-6c2-2 4.1-4 6-6.22a45.29 45.29 0 0 1 -5.27 6.9c-1.92 2.15-3.94 4.22-6 6.25s-4.17 4-6.33 5.91-4.4 3.74-6.68 5.5z" fill="#203ed3"/><path d="m120 236.33a8.15 8.15 0 0 1 1.76-1.62 8.25 8.25 0 0 1 2.12-1.12 8.22 8.22 0 0 1 -1.76 1.63 8.55 8.55 0 0 1 -2.12 1.11z" fill="#e0a4ab"/><path d="m117 243a7.44 7.44 0 0 1 3.28-2.66 7.29 7.29 0 0 1 -3.28 2.66z" fill="#e0a4ab"/><path d="m119.45 245.69a6.46 6.46 0 0 1 1.45-1.58 6.58 6.58 0 0 1 1.83-1.09 6.42 6.42 0 0 1 -1.44 1.58 6.73 6.73 0 0 1 -1.84 1.09z" fill="#e0a4ab"/><path d="m121.94 248.9a6.61 6.61 0 0 1 1.44-1.58 6.78 6.78 0 0 1 1.84-1.09 6.42 6.42 0 0 1 -1.44 1.58 6.89 6.89 0 0 1 -1.84 1.09z" fill="#e0a4ab"/><path d="m119.3 117.2v9.34s6.66 10.52 11.17 10.52 11.12-7.52 12.05-10l.66-9.88z" fill="#e0a4ab"/><path d="m151.92 104s1.64 7.38-5 7.38 2-14.77 5-7.38z" fill="#e0a4ab"/><path d="m111.82 102.62a4.28 4.28 0 0 0 -.81 2.81c.12 1.9 1 5 5.8 5 6.42-.02-1.14-13.03-4.99-7.81z" fill="#e0a4ab"/><path d="m114.89 104s.41 10.52 4.38 14.49 9.43 8.6 13.8 8.6 12.43-8.88 13.66-11.54 2.4-12.52 2.4-12.52a16.78 16.78 0 0 0 -2.4-14.74c-5.19-7.11-2.59-11.61-16.4-9s-17.18 14.46-16.26 18.45a25.36 25.36 0 0 1 .82 6.26z" fill="#ffcdc2"/><path d="m148.78 104s1.77-2.6 2.51-.8c0 0 1.61-5 .81-9h1.9s-.33-6.75-4.88-10.39a9.11 9.11 0 0 1 2.74-.35c-2-2.58-9-5.61-11.1-6.25a2.15 2.15 0 0 0 1.63-1.87 15.17 15.17 0 0 0 -6.83 1.24 12 12 0 0 0 -7.56-1.29l2.19 1.51a18.53 18.53 0 0 0 -12.85 4.1l2.66.1s-6.56 4-8.88 9.29l2.32-.14s-1.92 2.39-1.23 12.09c0 0 .82-1.16 2.73 1.71 0 0 .14-7.38 1.51-9.43l-.69 6.84c1.79-5.82 5.49-10.69 10-15.17 0 0-3.08 5.58-5.6 7.65a23 23 0 0 0 10.99-8.84 21.06 21.06 0 0 1 -5.73 7.24s10.38-1.91 11.34-10.66c0 0 1.23 7.66 7.1 11.89l-.86-3.93a10.67 10.67 0 0 0 5.74 6.12 24.11 24.11 0 0 1 .04 8.34z" fill="#424143"/><path d="m119.59 100.25a10.71 10.71 0 0 1 9.95 0 2.23 2.23 0 0 1 1.15 1.73c.23 2.47.08 8.17-6.18 8.17s-6.41-5.56-6.19-8.08a2.25 2.25 0 0 1 1.27-1.82z" fill="#424143"/><path d="m135.05 100.25a10.71 10.71 0 0 1 9.95 0 2.23 2.23 0 0 1 1.15 1.73c.23 2.47.09 8.17-6.18 8.17s-6.41-5.56-6.19-8.08a2.25 2.25 0 0 1 1.27-1.82z" fill="#424143"/><path d="m148.78 104.5h-33.89c-.17 0-.31-.23-.31-.51s.14-.5.31-.5h33.89c.17 0 .31.22.31.5s-.09.51-.31.51z" fill="#424143"/><path d="m127 119.21s4.37-5.22 10.31-.15c-.04 0-5.71-1.34-10.31.15z" fill="#ea7185"/><path d="m132.35 107.82a8.91 8.91 0 0 1 -.13 1.67c-.08.53-.19 1-.28 1.53a6.37 6.37 0 0 0 -.11.68 2.68 2.68 0 0 1 0 .41l.06.06.14.12a2.17 2.17 0 0 0 .29.24 5.17 5.17 0 0 0 .69.46 1.83 1.83 0 0 1 -.9.12 3.58 3.58 0 0 1 -.45-.09l-.22-.07h-.11l-.17-.11a1.54 1.54 0 0 1 -.49-1.1 3.5 3.5 0 0 1 .06-.93 5.78 5.78 0 0 1 .58-1.62 4.87 4.87 0 0 1 1.04-1.37z" fill="#e0a4ab"/><path d="m125.72 139.83 1.54 6.45h6.66l2.77-6.45s-1.44-5.54-5.48-5.54-5.49 5.54-5.49 5.54z" fill="#404041"/><path d="m223.28 227.33h-2.28l1.64-1.64a.77.77 0 0 0 0-1.07.75.75 0 0 0 -1.06 0l-1.64 1.64v-2.26a.75.75 0 0 0 -1.5 0v2.32l-1.64-1.65a.75.75 0 0 0 -1.06 0 .77.77 0 0 0 0 1.07l1.64 1.64h-2.38a.75.75 0 0 0 0 1.5h2.32l-1.64 1.64a.75.75 0 0 0 0 1.06.75.75 0 0 0 1.06 0l1.64-1.64v2.31a.75.75 0 0 0 1.5 0v-2.31l1.64 1.64a.75.75 0 0 0 1.06 0 .75.75 0 0 0 0-1.06l-1.58-1.69h2.32a.75.75 0 0 0 0-1.5z" fill="#ccc"/><path d="m241.39 227.33h-2.31l1.64-1.64a.77.77 0 0 0 0-1.07.75.75 0 0 0 -1.06 0l-1.66 1.64v-2.26a.75.75 0 0 0 -1.5 0v2.32l-1.64-1.65a.76.76 0 0 0 -1.07 1.07l1.64 1.64h-2.31a.75.75 0 0 0 0 1.5h2.31l-1.64 1.64a.75.75 0 0 0 0 1.06.76.76 0 0 0 1.07 0l1.64-1.64v2.31a.75.75 0 0 0 1.5 0v-2.31l1.64 1.64a.75.75 0 0 0 .53.22.79.79 0 0 0 .53-.22.75.75 0 0 0 0-1.06l-1.64-1.64h2.31a.75.75 0 0 0 0-1.5z" fill="#ccc"/><path d="m259.51 227.33h-2.32l1.64-1.64a.77.77 0 0 0 0-1.07.75.75 0 0 0 -1.06 0l-1.64 1.64v-2.26a.75.75 0 0 0 -1.5 0v2.32l-1.63-1.7a.75.75 0 0 0 -1.06 0 .77.77 0 0 0 0 1.07l1.64 1.64h-2.32a.75.75 0 0 0 0 1.5h2.32l-1.64 1.64a.75.75 0 0 0 0 1.06.75.75 0 0 0 1.06 0l1.64-1.64v2.31a.75.75 0 0 0 1.5 0v-2.31l1.64 1.64a.75.75 0 0 0 1.06 0 .75.75 0 0 0 0-1.06l-1.64-1.64h2.32a.75.75 0 0 0 0-1.5z" fill="#ccc"/><path d="m277.62 227.33h-2.32l1.64-1.64a.75.75 0 0 0 -1.06-1.07l-1.64 1.64v-2.26a.75.75 0 0 0 -1.5 0v2.32l-1.64-1.65a.75.75 0 0 0 -1.06 0 .77.77 0 0 0 0 1.07l1.64 1.64h-2.32a.75.75 0 0 0 0 1.5h2.32l-1.68 1.59a.75.75 0 0 0 0 1.06.79.79 0 0 0 .53.22.75.75 0 0 0 .53-.22l1.64-1.64v2.31a.75.75 0 0 0 1.5 0v-2.31l1.64 1.64a.79.79 0 0 0 .53.22.75.75 0 0 0 .53-.22.74.74 0 0 0 0-1.06l-1.64-1.64h2.32a.75.75 0 0 0 0-1.5z" fill="#ccc"/><path d="m295.74 227.33h-2.32l1.64-1.64a.77.77 0 0 0 0-1.07.75.75 0 0 0 -1.06 0l-1.64 1.64v-2.26a.75.75 0 1 0 -1.5 0v2.32l-1.64-1.65a.75.75 0 0 0 -1.06 1.07l1.64 1.64h-2.32a.75.75 0 0 0 0 1.5h2.32l-1.64 1.64a.74.74 0 0 0 0 1.06.77.77 0 0 0 .53.22.79.79 0 0 0 .53-.22l1.64-1.64v2.31a.75.75 0 0 0 1.5 0v-2.31l1.64 1.64a.77.77 0 0 0 .53.22.79.79 0 0 0 .53-.22.75.75 0 0 0 0-1.06l-1.64-1.64h2.32a.75.75 0 0 0 0-1.5z" fill="#ccc"/><path d="m409.78 186.91h4.16v187.2h-4.16z" fill="#afafaf"/><rect fill="#afafaf" height="35.44" rx="3.03" transform="matrix(0 1 -1 0 785.29 -37.78)" width="6.06" x="408.5" y="356.03"/><path d="m443.05 200.2h-62.39l4.73-62.38h52.93z" fill="#ffc300"/><path d="m29.92 285.46s-13.44-14.46-8.21-25.69a.41.41 0 0 1 .76 0c1.06 2.9 4.79 11.95 10.24 12.81v13.78z" fill="#449935"/><path d="m45.23 288a60.5 60.5 0 0 1 7.87-9.92c1.23-1.14 2.11-2.89 3.68-3.52 20.62-8.32 13.22-29.38 13.22-29.38a.76.76 0 0 0 -1.34-.43l-1.58 1.85-25.72 31.83z" fill="#59aa48"/><path d="m36.73 234s5.25-9.51 9.2-9.27 9.66 11.82 9.12 15.61l-.31 5.66-11.83 15.43z" fill="#6fce5b"/><path d="m34.46 262.51s-13.46-10.21-17.84-20.87a81.28 81.28 0 0 1 -4.93-17.78 2 2 0 0 1 1.9-2.33c4-.23 13.22.82 23.13 12.68 0 0 8.19 10.32 9.81 18 0 0 6.83-12.63 16.18-18.71a1.23 1.23 0 0 1 1.9 1 34 34 0 0 0 2.8 10.1s5.1 12.53-14.15 23.54c0 0-7.89 6.15-8.93 12.41z" fill="#449935"/><path d="m32 323.77.93-6.61s-16.93-6.38-24-20.41c0 0 5.74 2.73 10 2.84s11.13 4 14 7.48-5.32-11-12.39-15.61c-11.54-7.54-12.7-22.38-12.7-22.38s12.52 2.24 15.61 6.57l3.1 4.33 3.55 5.56 8.43 10.88s13.47-20.93 24.47-27.34c0 0 2.62 13.14-11.68 28.68 0 0-5.64 7.34-7.11 8.35 0 0 9.36-3.87 22.88 3.71 0 0-5.56 6.49-16.85 4.79-4.56-.69-7.33-.42-9 .15a3.78 3.78 0 0 0 -2.52 3.76l.25 5.25z" fill="#6fce5b"/><path d="m36.26 311.79s-8.35-21.92-6.26-35c1.54-9.67 4.79-15.74 6.38-18.26a.67.67 0 0 1 1.22.22 26 26 0 0 0 3.4 8.74c2.32 3.31 5.83 23.15 3.37 27.31a11.38 11.38 0 0 0 -1 1.9 103.6 103.6 0 0 1 -7.11 15.09z" fill="#6fce5b"/><path d="m51.44 376.34h-32.37a2.27 2.27 0 0 1 -2.26-2.06l-4.63-49a2.27 2.27 0 0 1 2.26-2.48h40.56a3.28 3.28 0 0 1 3.27 3.59l-4.57 47.89a2.27 2.27 0 0 1 -2.26 2.06z" fill="#395356"/><path d="m51.44 376.34a2.27 2.27 0 0 0 2.26-2.06l4.52-47.92a3.28 3.28 0 0 0 -3.22-3.59h-7s13 41.74-4.72 53.57z" fill="#121e21"/><path d="m44.5 234.06a30 30 0 0 1 1.92 6.19 38.91 38.91 0 0 1 .78 6.46 32.39 32.39 0 0 1 -.48 6.52 20.17 20.17 0 0 1 -2.22 6.11 47.49 47.49 0 0 0 1-6.28c.14-2.1.2-4.2.14-6.3s-.23-4.21-.43-6.33-.44-4.22-.71-6.37z" fill="#449935"/><path d="m49 237.19a5.79 5.79 0 0 1 .89 2.39 7.06 7.06 0 0 1 -.08 2.59 5.69 5.69 0 0 1 -1.19 2.38 4 4 0 0 1 -2.24 1.32 12.4 12.4 0 0 0 1.24-2 12.08 12.08 0 0 0 .7-2.05c.34-1.43.46-2.93.68-4.63z" fill="#449935"/><g fill="#6fce5b"><path d="m23.05 233.37a70.12 70.12 0 0 1 8.07 7.82 77.72 77.72 0 0 1 6.88 8.93 52.25 52.25 0 0 1 5.23 10 28.09 28.09 0 0 1 2.1 11.05 38 38 0 0 0 -3.21-10.59c-.76-1.67-1.59-3.32-2.52-4.92s-1.86-3.19-2.89-4.73c-2-3.1-4.23-6.07-6.51-9s-4.68-5.75-7.15-8.56z"/><path d="m30 233.73a7.43 7.43 0 0 1 1.43 1.94 9.79 9.79 0 0 1 .85 2.22 7.76 7.76 0 0 1 .26 2.41 3.83 3.83 0 0 1 -.8 2.34 13.54 13.54 0 0 0 -.4-2.24l-.55-2.13a23.48 23.48 0 0 1 -.79-4.54z"/><path d="m37.45 241.92a7.61 7.61 0 0 1 1 2.17 9.76 9.76 0 0 1 .43 2.34 8.28 8.28 0 0 1 -.19 2.42 3.87 3.87 0 0 1 -1.18 2.15 12.32 12.32 0 0 0 0-2.27l-.14-2.19a23.06 23.06 0 0 1 .08-4.62z"/><path d="m25.31 244.5a8.6 8.6 0 0 1 2.55-.41 11.43 11.43 0 0 1 2.54.22 9.3 9.3 0 0 1 2.46.84 4.14 4.14 0 0 1 1.92 1.8 12 12 0 0 0 -2.34-.67l-2.34-.46c-.79-.16-1.58-.33-2.38-.53a17.82 17.82 0 0 1 -2.41-.79z"/><path d="m31.21 253.79a8.59 8.59 0 0 1 2.54-.41 11.52 11.52 0 0 1 2.55.22 8.78 8.78 0 0 1 2.45.84 4.11 4.11 0 0 1 1.93 1.8 12.1 12.1 0 0 0 -2.35-.67l-2.33-.46c-.78-.16-1.57-.33-2.37-.54a16.46 16.46 0 0 1 -2.42-.78z"/><path d="m57.72 249.12a19.2 19.2 0 0 0 -2.85 3.13 38.66 38.66 0 0 0 -2.33 3.5 53.74 53.74 0 0 0 -3.7 7.54c-1.11 2.58-2 5.27-2.89 7.94-.38 1.36-.82 2.71-1.23 4.07s-.72 2.7-1.21 4.1c.11-1.42.3-2.84.47-4.27s.52-2.81.82-4.22.71-2.78 1.14-4.15.91-2.73 1.48-4.06 1.19-2.63 1.83-3.92l1.09-1.87c.36-.63.8-1.21 1.2-1.81s.87-1.16 1.31-1.73.95-1.1 1.46-1.61a14.05 14.05 0 0 1 3.41-2.64z"/><path d="m57 259.34a34.92 34.92 0 0 0 -6.14 4.19 25.14 25.14 0 0 0 -2.58 2.58c-.83.92-1.53 1.94-2.35 3a10.23 10.23 0 0 1 1.38-3.67 12.13 12.13 0 0 1 2.54-3 13 13 0 0 1 3.34-2.11 10 10 0 0 1 3.81-.99z"/><path d="m48.67 254.12a4.66 4.66 0 0 1 1 1.71 6.6 6.6 0 0 1 .37 1.91 6.24 6.24 0 0 1 -.24 2 4.06 4.06 0 0 1 -1 1.73c-.11-.7-.14-1.29-.19-1.88s-.08-1.16-.1-1.75 0-1.17 0-1.77a13.27 13.27 0 0 1 .16-1.95z"/><path d="m41 282.88c-.12 1.23-.28 2.41-.45 3.58l-.47 3.54c-.16 1.16-.31 2.32-.45 3.49s-.23 2.34-.43 3.57a12 12 0 0 1 -.77-3.6 17.33 17.33 0 0 1 .13-3.67 18.1 18.1 0 0 1 .85-3.56 12.94 12.94 0 0 1 1.59-3.35z"/></g><path d="m16.64 279.4a27.63 27.63 0 0 1 8.13 6.3 41.45 41.45 0 0 1 6 8.48 50.05 50.05 0 0 1 2.1 4.75c.29.82.63 1.61.87 2.44s.48 1.66.71 2.49a21.84 21.84 0 0 1 .57 2.52l.47 2.54c.22 1.7.35 3.42.46 5.12-.45-1.66-.78-3.33-1.2-5l-.75-2.42-.34-1.22c-.11-.4-.27-.8-.4-1.2-.29-.79-.57-1.59-.83-2.39s-.64-1.56-.95-2.34c-.59-1.58-1.39-3.06-2.11-4.57a53.72 53.72 0 0 0 -5.51-8.42 40.08 40.08 0 0 0 -7.22-7.08z" fill="#449935"/><path d="m54.35 287a145.27 145.27 0 0 0 -9.76 12.44l-1.12 1.62-1 1.66c-.37.55-.69 1.12-1 1.68s-.69 1.12-1 1.7c-1.31 2.28-2.4 4.66-3.53 7.09a33.32 33.32 0 0 1 2.46-7.63 46.39 46.39 0 0 1 4-7 54.21 54.21 0 0 1 5-6.24 42.6 42.6 0 0 1 5.95-5.32z" fill="#449935"/><path d="m34.78 273a42.18 42.18 0 0 1 3.41 9.8c.18.84.39 1.69.52 2.55l.42 2.57c.19 1.73.36 3.46.42 5.2l.05 1.31v1.3c0 .87 0 1.74-.07 2.61-.17 1.73-.24 3.47-.58 5.18a46.62 46.62 0 0 1 -2.72 10 101.3 101.3 0 0 0 1.53-10.16 73.77 73.77 0 0 0 .24-10.22 78.88 78.88 0 0 0 -1-10.14 81.69 81.69 0 0 0 -2.22-10z" fill="#449935"/><path d="m33 286.58a6.92 6.92 0 0 1 2.79 1.36 8.87 8.87 0 0 1 2.81 3.76 7.42 7.42 0 0 1 .4 1.54 6.62 6.62 0 0 1 -.17 3.1c-.36-1-.59-1.91-1-2.78a16.1 16.1 0 0 0 -1.27-2.48 21.57 21.57 0 0 0 -1.56-2.28c-.66-.74-1.31-1.46-2-2.22z" fill="#449935"/><path d="m33 294.67a6.39 6.39 0 0 1 2.65 1.45 8.25 8.25 0 0 1 1.93 2.38 8.15 8.15 0 0 1 1 2.92 6.66 6.66 0 0 1 -.24 3c-.34-1-.58-1.86-.92-2.72a19.86 19.86 0 0 0 -1.14-2.47 27.11 27.11 0 0 0 -3.28-4.56z" fill="#449935"/><path d="m17.91 302.9a32.46 32.46 0 0 1 5.37 1.68 40.76 40.76 0 0 1 5.07 2.42c.81.48 1.61 1 2.39 1.52a23.82 23.82 0 0 1 2.26 1.81 13.12 13.12 0 0 1 1.92 2.15 5.9 5.9 0 0 1 1.08 2.63 7.7 7.7 0 0 0 -1.68-2.11 19.13 19.13 0 0 0 -2.11-1.7c-1.48-1-3-2-4.63-2.91-3.17-1.87-6.45-3.55-9.67-5.49z" fill="#449935"/><path d="m56.56 310.25a38.89 38.89 0 0 0 -5.59-.77 24.41 24.41 0 0 0 -5.48.24l-1.33.26-1.29.4a8.53 8.53 0 0 0 -1.27.49 8.55 8.55 0 0 0 -1.22.59 20.75 20.75 0 0 0 -4.46 3.35c.24-.41.49-.83.76-1.23a5.88 5.88 0 0 1 .88-1.17l1-1.07c.37-.32.78-.6 1.18-.9a13.18 13.18 0 0 1 5.48-2.23 17.31 17.31 0 0 1 5.88.08 16.55 16.55 0 0 1 5.46 1.96z" fill="#449935"/><path d="m38.81 296.71a5.51 5.51 0 0 1 -.13-2.35 7 7 0 0 1 .73-2.26 5.87 5.87 0 0 1 1.59-1.86 3.78 3.78 0 0 1 2.29-.75 13.8 13.8 0 0 0 -1.45 1.62 18.73 18.73 0 0 0 -1.06 1.71c-.66 1.18-1.19 2.5-1.97 3.89z" fill="#449935"/><path d="m454.29 85.73a21.76 21.76 0 0 0 -40.1-11.73 14.74 14.74 0 0 0 -23.49 9.58 12.63 12.63 0 1 0 -5.64 23.92h48.85a21.75 21.75 0 0 0 20.38-21.77z" fill="#ececec"/><path d="m14.58 28.05a28 28 0 0 1 51.67-15.12 19 19 0 0 1 30.26 12.35 16 16 0 0 1 7.25-1.73 16.27 16.27 0 1 1 0 32.54h-62.92v-.09a28 28 0 0 1 -26.26-27.95z" fill="#ececec"/></svg>